<svg width="35" height="39" viewBox="0 0 35 39" fill="none" xmlns="http://www.w3.org/2000/svg">
<rect y="0.888428" width="24" height="24" rx="6" fill="white" fill-opacity="0.2"/>
<path d="M32.4625 31.3009C32.4625 31.7509 32.3625 32.2134 32.15 32.6634C31.9375 33.1134 31.6625 33.5384 31.3 33.9384C30.6875 34.6134 30.0125 35.1009 29.25 35.4134C28.5 35.7259 27.6875 35.8884 26.8125 35.8884C25.5375 35.8884 24.175 35.5884 22.7375 34.9759C21.3 34.3634 19.8625 33.5384 18.4375 32.5009C17 31.4509 15.6375 30.2884 14.3375 29.0009C13.05 27.7009 11.8875 26.3384 10.85 24.9134C9.825 23.4884 9 22.0634 8.4 20.6509C7.8 19.2259 7.5 17.8634 7.5 16.5634C7.5 15.7134 7.65 14.9009 7.95 14.1509C8.25 13.3884 8.725 12.6884 9.3875 12.0634C10.1875 11.2759 11.0625 10.8884 11.9875 10.8884C12.3375 10.8884 12.6875 10.9634 13 11.1134C13.325 11.2634 13.6125 11.4884 13.8375 11.8134L16.7375 15.9009C16.9625 16.2134 17.125 16.5009 17.2375 16.7759C17.35 17.0384 17.4125 17.3009 17.4125 17.5384C17.4125 17.8384 17.325 18.1384 17.15 18.4259C16.9875 18.7134 16.75 19.0134 16.45 19.3134L15.5 20.3009C15.3625 20.4384 15.3 20.6009 15.3 20.8009C15.3 20.9009 15.3125 20.9884 15.3375 21.0884C15.375 21.1884 15.4125 21.2634 15.4375 21.3384C15.6625 21.7509 16.05 22.2884 16.6 22.9384C17.1625 23.5884 17.7625 24.2509 18.4125 24.9134C19.0875 25.5759 19.7375 26.1884 20.4 26.7509C21.05 27.3009 21.5875 27.6759 22.0125 27.9009C22.075 27.9259 22.15 27.9634 22.2375 28.0009C22.3375 28.0384 22.4375 28.0509 22.55 28.0509C22.7625 28.0509 22.925 27.9759 23.0625 27.8384L24.0125 26.9009C24.325 26.5884 24.625 26.3509 24.9125 26.2009C25.2 26.0259 25.4875 25.9384 25.8 25.9384C26.0375 25.9384 26.2875 25.9884 26.5625 26.1009C26.8375 26.2134 27.125 26.3759 27.4375 26.5884L31.575 29.5259C31.9 29.7509 32.125 30.0134 32.2625 30.3259C32.3875 30.6384 32.4625 30.9509 32.4625 31.3009Z" stroke="white" stroke-width="1.5" stroke-miterlimit="10"/>
<path d="M28.125 19.6384C28.125 18.8884 27.5375 17.7384 26.6625 16.8009C25.8625 15.9384 24.8 15.2634 23.75 15.2634" stroke="white" stroke-width="1.5" stroke-linecap="round" stroke-linejoin="round"/>
<path d="M32.5 19.6384C32.5 14.8009 28.5875 10.8884 23.75 10.8884" stroke="white" stroke-width="1.5" stroke-linecap="round" stroke-linejoin="round"/>
</svg>
