<svg width="20" height="21" viewBox="0 0 20 21" fill="none" xmlns="http://www.w3.org/2000/svg">
<path d="M7.49996 19.2218H12.5C16.6666 19.2218 18.3333 17.5551 18.3333 13.3884V8.38845C18.3333 4.22178 16.6666 2.55511 12.5 2.55511H7.49996C3.33329 2.55511 1.66663 4.22178 1.66663 8.38845V13.3884C1.66663 17.5551 3.33329 19.2218 7.49996 19.2218Z" stroke="white" stroke-width="1.2" stroke-linecap="round" stroke-linejoin="round"/>
<path d="M10 13.8051C11.6109 13.8051 12.9167 12.4992 12.9167 10.8884C12.9167 9.27758 11.6109 7.97174 10 7.97174C8.38921 7.97174 7.08337 9.27758 7.08337 10.8884C7.08337 12.4992 8.38921 13.8051 10 13.8051Z" stroke="white" stroke-width="1.2" stroke-linecap="round" stroke-linejoin="round"/>
<path d="M14.6967 6.72178H14.7064" stroke="white" stroke-width="2" stroke-linecap="round" stroke-linejoin="round"/>
</svg>
