<svg width="20" height="21" viewBox="0 0 20 21" fill="none" xmlns="http://www.w3.org/2000/svg">
<path d="M5.74996 18.0551C6.99996 18.8051 8.49996 19.2218 9.99996 19.2218C14.5833 19.2218 18.3333 15.4718 18.3333 10.8884C18.3333 6.30511 14.5833 2.55511 9.99996 2.55511C5.41663 2.55511 1.66663 6.30511 1.66663 10.8884C1.66663 12.3884 2.08329 13.8051 2.74996 15.0551L2.10707 17.5278C1.91235 18.2767 2.60555 18.9535 3.34961 18.7409L5.74996 18.0551Z" stroke="white" stroke-miterlimit="10" stroke-linecap="round" stroke-linejoin="round"/>
<path d="M13.75 13.2622C13.75 13.3972 13.72 13.5359 13.6561 13.6709C13.5923 13.8059 13.5096 13.9334 13.4007 14.0534C13.2167 14.2559 13.0139 14.4022 12.7848 14.4959C12.5595 14.5897 12.3153 14.6384 12.0525 14.6384C11.6694 14.6384 11.26 14.5484 10.8281 14.3647C10.3962 14.1809 9.96432 13.9334 9.53618 13.6222C9.10428 13.3072 8.69492 12.9584 8.30433 12.5722C7.9175 12.1822 7.56823 11.7734 7.25651 11.3459C6.94855 10.9184 6.70068 10.4909 6.52041 10.0672C6.34014 9.63968 6.25 9.23093 6.25 8.84093C6.25 8.58593 6.29507 8.34218 6.3852 8.11718C6.47534 7.88843 6.61805 7.67843 6.8171 7.49093C7.05746 7.25468 7.32036 7.13843 7.59827 7.13843C7.70343 7.13843 7.80859 7.16093 7.90248 7.20593C8.00013 7.25093 8.0865 7.31843 8.15411 7.41593L9.02541 8.64218C9.09301 8.73593 9.14184 8.82218 9.17564 8.90468C9.20944 8.98343 9.22822 9.06218 9.22822 9.13343C9.22822 9.22343 9.20193 9.31343 9.14935 9.39968C9.10053 9.48593 9.02917 9.57593 8.93903 9.66593L8.65361 9.96218C8.61229 10.0034 8.59352 10.0522 8.59352 10.1122C8.59352 10.1422 8.59727 10.1684 8.60478 10.1984C8.61605 10.2284 8.62732 10.2509 8.63483 10.2734C8.70243 10.3972 8.81885 10.5584 8.9841 10.7534C9.1531 10.9484 9.33337 11.1472 9.52867 11.3459C9.73147 11.5447 9.92677 11.7284 10.1258 11.8972C10.3211 12.0622 10.4826 12.1747 10.6103 12.2422C10.6291 12.2497 10.6516 12.2609 10.6779 12.2722C10.7079 12.2834 10.738 12.2872 10.7718 12.2872C10.8356 12.2872 10.8845 12.2647 10.9258 12.2234L11.2112 11.9422C11.3051 11.8484 11.3952 11.7772 11.4816 11.7322C11.568 11.6797 11.6544 11.6534 11.7482 11.6534C11.8196 11.6534 11.8947 11.6684 11.9773 11.7022C12.06 11.7359 12.1463 11.7847 12.2402 11.8484L13.4834 12.7297C13.581 12.7972 13.6486 12.8759 13.6899 12.9697C13.7275 13.0634 13.75 13.1572 13.75 13.2622Z" stroke="white" stroke-miterlimit="10"/>
</svg>
